#!OML:ASF X:\für Bonn\!DataBase\2005_08_12_Daniel\c3d\Daniel.ASF
:FULLY-SPECIFIED
:DEGREES
1
root -1.77667 16.2109 16.3333 2.67587 148.222 -350.275
lowerback 17.4506 -4.32459 -0.73814
upperback 3.18874 -5.50572 0.296668
thorax -6.21531 -2.53622 1.94553
lowerneck -3.56765 12.7496 1.42685
upperneck -5.60493 17.0234 -12.3023
head 0.105242 8.70098 -3.83266
rclavicle 1.78906e-015 -1.74931e-014
rhumerus -61.2622 4.83639 -88.5367
rradius 61.651
rwrist 6.26742
rhand -34.8534 32.4544
rfingers 7.12502
rthumb -8.00332 2.62597
lclavicle 1.78906e-015 -1.74931e-014
lhumerus -45.3953 5.33414 94.953
lradius 119.234
lwrist 20.5138
lhand -20.251 -12.7802
lfingers 7.12502
lthumb 6.09745 17.112
rfemur -30.2471 -4.47846 16.8593
rtibia 98.2335
rfoot -4.80398 -6.0293
rtoes -11.6428
lfemur -4.43767 5.64939 -30.8675
ltibia 48.6732
lfoot -33.7021 -1.85798
ltoes 12.5316
2
root -1.63215 16.3101 16.0558 3.16533 149.342 -349.789
lowerback 16.8544 -4.81376 -0.0522505
upperback 3.0813 -6.03501 0.479912
thorax -6.04353 -2.81782 1.8299
lowerneck -3.62089 12.9052 1.29972
upperneck -5.43559 17.2547 -12.3361
head 0.177121 8.81013 -3.80001
rclavicle 1.22849e-013 -3.18055e-015
rhumerus -62.2448 5.35191 -88.0862
rradius 61.3134
rwrist 7.19463
rhand -34.6882 33.1472
rfingers 7.12502
rthumb -7.84379 3.31267
lclavicle 1.22849e-013 -3.18055e-015
lhumerus -45.022 4.97609 94.5569
lradius 120.293
lwrist 20.5467
lhand -20.2919 -13.1057
lfingers 7.12502
lthumb 6.05797 16.7876
rfemur -31.2533 -3.61036 17.7383
rtibia 96.0364
rfoot -4.61264 -5.81831
rtoes -11.7566
lfemur -2.82578 4.61684 -30.2773
ltibia 47.2358
lfoot -32.6549 -2.02193
ltoes 12.3048
3
root -1.48391 16.4186 15.7675 3.65451 150.431 -349.254
lowerback 16.1312 -5.26042 0.699553
upperback 3.01472 -6.50432 0.681081
thorax -5.77299 -3.07118 1.664
lowerneck -3.70411 13.0272 1.07736
upperneck -5.27492 17.4418 -12.2597
head 0.227524 8.89722 -3.71756
rclavicle -9.34288e-015 -1.59028e-014
rhumerus -63.2834 5.84129 -87.6806
rradius 61.1675
rwrist 7.85403
rhand -34.4938 33.942
rfingers 7.12502
rthumb -7.65619 4.10054
lclavicle -9.34288e-015 -1.59028e-014
lhumerus -44.8305 4.59591 94.1176
lradius 121.299
lwrist 20.5206
lhand -20.0707 -13.3703
lfingers 7.12502
lthumb 6.27159 16.5168
rfemur -31.9253 -2.81349 18.6661
rtibia 93.475
rfoot -4.37818 -5.43966
rtoes -12.0909
lfemur -1.2134 3.60838 -29.6009
ltibia 45.7907
lfoot -31.3139 -2.26612
ltoes 12.3476
4
root -1.33827 16.5271 15.4788 4.20246 151.508 -348.706
lowerback 15.315 -5.69247 1.48953
upperback 2.9485 -6.9631 0.89093
thorax -5.46236 -3.31921 1.46817
lowerneck -3.86072 13.1511 0.927168
upperneck -5.04004 17.6379 -12.2093
head 0.323839 8.98233 -3.64489
rclavicle -1.27222e-014 1.27222e-014
rhumerus -64.6015 6.49729 -87.4746
rradius 61.3218
rwrist 8.31125
rhand -34.4156 34.3938
rfingers 7.12502
rthumb -7.58069 4.54965
lclavicle -1.27222e-014 1.27222e-014
lhumerus -44.7776 4.24527 93.6096
lradius 122.157
lwrist 20.3753
lhand -19.7155 -13.7853
lfingers 7.12502
lthumb 6.6145 16.0914
rfemur -32.5123 -2.04349 19.536
rtibia 90.6509
rfoot -4.09309 -4.87741
rtoes -11.8458
lfemur 0.229507 2.69146 -28.8798
ltibia 44.3945
lfoot -29.5359 -2.54468
ltoes 12.3906
5
root -1.193 16.6385 15.1841 4.7436 152.58 -348.158
lowerback 14.5007 -6.13109 2.29019
upperback 2.83076 -7.4446 1.11513
thorax -5.21412 -3.57712 1.28272
lowerneck -3.94988 13.2942 0.875766
upperneck -4.75472 17.8601 -12.2029
head 0.440587 9.07808 -3.60306
rclavicle 2.60408e-014 4.77083e-015
rhumerus -66.075 7.26998 -87.4083
rradius 61.6523
rwrist 8.40612
rhand -34.2271 34.4119
rfingers 7.12502
rthumb -7.3988 4.56131
lclavicle 2.60408e-014 4.77083e-015
lhumerus -44.9864 4.01374 93.029
lradius 122.977
lwrist 20.06
lhand -19.2096 -14.0925
lfingers 7.12502
lthumb 7.10285 15.7683
rfemur -32.8754 -1.33224 20.379
rtibia 87.5765
rfoot -3.94076 -4.43821
rtoes -12.4368
lfemur 1.60045 1.88998 -28.1039
ltibia 43.0398
lfoot -27.3252 -2.79832
ltoes 12.2289
6
root -1.05029 16.7553 14.8843 5.26659 153.598 -347.672
lowerback 13.6342 -6.49766 3.06506
upperback 2.73203 -7.8509 1.32424
thorax -4.92272 -3.79571 1.0676
lowerneck -4.2013 13.4135 0.74966
upperneck -4.37434 18.0583 -12.0205
head 0.587259 9.15227 -3.47789
rclavicle 5.00937e-014 9.54166e-015
rhumerus -67.3661 7.87231 -87.2934
rradius 61.9189
rwrist 8.31654
rhand -33.9265 34.201
rfingers 7.12502
rthumb -7.10865 4.34039
lclavicle 5.00937e-014 9.54166e-015
lhumerus -45.1043 3.627 92.3932
lradius 123.52
lwrist 19.678
lhand -18.622 -14.5432
lfingers 7.12502
lthumb 7.67004 15.2977
rfemur -33.0492 -0.534346 21.0731
rtibia 84.1956
rfoot -3.77696 -4.13342
rtoes -12.6106
lfemur 2.91703 1.04364 -27.4056
ltibia 41.6825
lfoot -24.7321 -2.98042
ltoes 11.9223
7
root -0.908949 16.8781 14.5748 5.76357 154.569 -347.286
lowerback 12.6996 -6.82095 3.825
upperback 2.57559 -8.22931 1.46499
thorax -4.66862 -4.00205 0.775711
lowerneck -4.28117 13.5198 0.708926
upperneck -3.96826 18.2268 -11.7716
head 0.711802 9.21218 -3.35942
rclavicle -3.65764e-014 -1.59028e-014
rhumerus -68.5769 8.30688 -87.2492
rradius 62.0026
rwrist 7.97555
rhand -33.4312 33.707
rfingers 7.12502
rthumb -6.63046 3.83082
lclavicle -3.65764e-014 -1.59028e-014
lhumerus -45.2199 3.11462 91.6145
lradius 123.775
lwrist 19.2813
lhand -18.0771 -14.9126
lfingers 7.12502
lthumb 8.19595 14.9085
rfemur -32.9777 0.393175 21.6045
rtibia 80.4974
rfoot -3.63688 -4.11358
rtoes -12.3097
lfemur 4.19491 0.239724 -26.8244
ltibia 40.2802
lfoot -21.8008 -3.00861
ltoes 11.3931
8
root -0.771104 17.0038 14.2615 6.1969 155.484 -347.022
lowerback 11.73 -7.09043 4.46031
upperback 2.4677 -8.56526 1.62802
thorax -4.32752 -4.18205 0.551821
lowerneck -4.61335 13.6066 0.457365
upperneck -3.46378 18.3957 -11.4714
head 0.883302 9.26604 -3.17023
rclavicle -1.59028e-015 3.18055e-015
rhumerus -69.6714 8.80619 -87.1271
rradius 62.0795
rwrist 7.35905
rhand -32.8767 33.187
rfingers 7.12502
rthumb -6.09522 3.29466
lclavicle -1.59028e-015 3.18055e-015
lhumerus -45.2608 2.53355 90.911
lradius 123.947
lwrist 18.6807
lhand -17.6205 -15.1389
lfingers 7.12502
lthumb 8.63659 14.6644
rfemur -32.7708 1.41434 21.9565
rtibia 76.64
rfoot -3.55602 -4.27358
rtoes -12.6959
lfemur 5.4276 -0.554048 -26.3913
ltibia 38.844
lfoot -18.5279 -2.90461
ltoes 10.4814
9
root -0.635715 17.1296 13.9421 6.58636 156.263 -346.882
lowerback 10.7754 -7.28572 5.00596
upperback 2.29982 -8.8318 1.73042
thorax -4.05502 -4.3287 0.303334
lowerneck -4.75208 13.6683 0.217154
upperneck -3.035 18.5134 -11.1006
head 0.986871 9.30233 -2.98398
rclavicle 9.74045e-015 -2.8625e-014
rhumerus -70.7191 9.14037 -87.014
rradius 62.0207
rwrist 6.69777
rhand -32.3663 32.7549
rfingers 7.12502
rthumb -5.60237 2.84892
lclavicle 9.74045e-015 -2.8625e-014
lhumerus -45.3606 1.80274 90.2307
lradius 124.04
lwrist 18.0843
lhand -17.2953 -15.3566
lfingers 7.12502
lthumb 8.95038 14.4335
rfemur -32.5272 2.58088 22.1062
rtibia 72.6984
rfoot -3.48663 -4.58671
rtoes -14.0042
lfemur 6.61415 -1.13801 -26.0506
ltibia 37.4271
lfoot -15.1053 -2.8454
ltoes 9.44069
10
root -0.505529 17.2548 13.6206 6.95604 156.969 -346.815
lowerback 9.8792 -7.42731 5.48088
upperback 2.1234 -9.04157 1.80275
thorax -3.81742 -4.44589 0.0568546
lowerneck -5.00334 13.7221 0.110254
upperneck -2.47823 18.6277 -10.7547
head 1.16627 9.32733 -2.81216
rclavicle 3.73715e-014 -3.49861e-014
rhumerus -71.5697 9.33633 -86.8948
rradius 61.7785
rwrist 5.99719
rhand -31.9034 32.4172
rfingers 7.12502
rthumb -5.15546 2.49994
lclavicle 3.73715e-014 -3.49861e-014
lhumerus -45.5078 0.904081 89.5265
lradius 123.982
lwrist 17.4305
lhand -17.261 -15.5321
lfingers 7.12502
lthumb 8.98352 14.2566
rfemur -32.294 3.74113 22.1408
rtibia 68.7179
rfoot -3.54052 -5.09901
rtoes -15.721
lfemur 7.60357 -1.45086 -25.6984
ltibia 36.1619
lfoot -11.5331 -2.92238
ltoes 8.08997
11
root -0.376641 17.3699 13.2992 7.33476 157.551 -346.813
lowerback 9.13342 -7.49617 5.76519
upperback 1.80217 -9.15912 1.99356
thorax -3.76192 -4.51844 0.0468664
lowerneck -5.09583 13.7329 -0.0737629
upperneck -1.97423 18.6945 -10.5537
head 1.30788 9.33921 -2.69218
rclavicle 3.67752e-015 -5.40694e-014
rhumerus -72.4861 9.62832 -86.5666
rradius 61.5126
rwrist 5.18472
rhand -31.4513 32.2182
rfingers 7.12502
rthumb -4.71891 2.29075
lclavicle 3.67752e-015 -5.40694e-014
lhumerus -45.8713 0.0304292 89.1257
lradius 123.872
lwrist 16.8716
lhand -17.307 -15.7459
lfingers 7.12502
lthumb 8.93915 14.0448
rfemur -32.0554 4.98381 22.0332
rtibia 64.7286
rfoot -3.92323 -5.77974
rtoes -17.496
lfemur 8.36897 -1.51013 -25.3492
ltibia 35.1241
lfoot -7.97884 -3.07705
ltoes 6.37631
12
root -0.253478 17.4785 12.9763 7.64257 158.078 -346.845
lowerback 8.55122 -7.52119 6.00803
upperback 1.41847 -9.20686 2.18669
thorax -3.85102 -4.55729 0.0772934
lowerneck -5.00799 13.7044 -0.16779
upperneck -1.51508 18.7042 -10.4698
head 1.42435 9.3295 -2.6405
rclavicle 2.80286e-014 2.06736e-014
rhumerus -73.4483 9.87512 -86.1461
rradius 61.1786
rwrist 4.46904
rhand -31.2131 32.2879
rfingers 7.12502
rthumb -4.48888 2.35546
lclavicle 2.80286e-014 2.06736e-014
lhumerus -46.3298 -0.96423 88.8642
lradius 123.749
lwrist 16.3137
lhand -17.4496 -15.7537
lfingers 7.12502
lthumb 8.80146 14.0428
rfemur -31.7012 6.12778 21.8629
rtibia 60.7128
rfoot -4.54564 -6.4969
rtoes -19.6145
lfemur 8.97307 -1.2943 -24.968
ltibia 34.4174
lfoot -4.70144 -3.32001
ltoes 4.63797
13
root -0.132254 17.5847 12.653 7.95652 158.536 -346.894
lowerback 8.06085 -7.50392 6.14837
upperback 0.972756 -9.19336 2.42566
thorax -4.02872 -4.56494 0.217087
lowerneck -4.86766 13.6597 -0.367139
upperneck -1.07837 18.6961 -10.3568
head 1.50973 9.31535 -2.57109
rclavicle 6.38099e-014 -7.95139e-015
rhumerus -74.5734 10.3255 -85.7782
rradius 61.0103
rwrist 3.51082
rhand -31.0978 32.3909
rfingers 7.12502
rthumb -4.37756 2.45615
lclavicle 6.38099e-014 -7.95139e-015
lhumerus -46.9413 -1.98647 88.8534
lradius 123.568
lwrist 15.8415
lhand -17.655 -15.8595
lfingers 7.12502
lthumb 8.60328 13.9452
rfemur -31.3023 7.22893 21.6606
rtibia 56.6645
rfoot -5.12097 -7.33355
rtoes -21.432
lfemur 9.36123 -1.05671 -24.6321
ltibia 34.0518
lfoot -1.98379 -3.33397
ltoes 2.41152
14
root -0.0156364 17.6778 12.3325 8.29226 158.915 -346.955
lowerback 7.55319 -7.46148 6.28836
upperback 0.574725 -9.14731 2.63932
thorax -4.14908 -4.55358 0.320431
lowerneck -4.88378 13.5982 -0.483895
upperneck -0.613237 18.6751 -10.3193
head 1.64786 9.28881 -2.52429
rclavicle -1.81789e-013 4.13472e-014
rhumerus -75.6192 10.7969 -85.3867
rradius 60.9353
rwrist 2.55436
rhand -30.9723 32.6209
rfingers 7.12502
rthumb -4.25638 2.6837
lclavicle -1.81789e-013 4.13472e-014
lhumerus -47.5212 -2.98962 88.8399
lradius 123.319
lwrist 15.4489
lhand -17.9245 -16.1407
lfingers 7.12502
lthumb 8.34316 13.6745
rfemur -30.9541 8.17122 21.4386
rtibia 52.6673
rfoot -5.48252 -8.23881
rtoes -23.3507
lfemur 9.53354 -0.885298 -24.4374
ltibia 34.0462
lfoot 0.238507 -3.00802
ltoes 0.304767
15
root 0.100965 17.7582 12.0121 8.7346 159.252 -347.056
lowerback 6.82432 -7.39498 6.44696
upperback 0.238114 -9.09907 2.74016
thorax -4.10263 -4.54156 0.263457
lowerneck -4.93467 13.5427 -0.354484
upperneck -0.247851 18.6383 -10.3353
head 1.79041 9.25463 -2.53157
rclavicle -1.05654e-013 4.37326e-014
rhumerus -76.4323 11.1139 -85.1811
rradius 60.7798
rwrist 1.63936
rhand -30.8699 32.7434
rfingers 7.12502
rthumb -4.15746 2.80418
lclavicle -1.05654e-013 4.37326e-014
lhumerus -48.155 -4.05869 88.745
lradius 123.134
lwrist 15.2111
lhand -18.1034 -16.4741
lfingers 7.12502
lthumb 8.17052 13.3479
rfemur -30.74 8.93223 21.1472
rtibia 48.7716
rfoot -5.75506 -9.05795
rtoes -25.0078
lfemur 9.4033 -0.882752 -24.4054
ltibia 34.4101
lfoot 2.13077 -2.4254
ltoes -1.07952
